<?xml version="1.0" encoding="UTF-8"?>
<svg version="1.1" xmlns="http://www.w3.org/2000/svg" width="500" height="500">
<path d="M0 0 C1.145896 0.11746582 1.145896 0.11746582 2.31494141 0.23730469 C4.19924116 0.45988999 6.07097439 0.7841013 7.9375 1.125 C8.2675 1.785 8.5975 2.445 8.9375 3.125 C7.19726562 3.68767578 7.19726562 3.68767578 5.421875 4.26171875 C-7.74853872 8.55666474 -20.00513229 13.25810204 -31.93359375 20.35546875 C-34.61039771 21.86931668 -37.17971258 23.0742644 -40.0625 24.125 C-40.0625 24.785 -40.0625 25.445 -40.0625 26.125 C-41.7125 26.785 -43.3625 27.445 -45.0625 28.125 C-45.0625 28.785 -45.0625 29.445 -45.0625 30.125 C-46.22879452 31.19360995 -47.44755932 32.2052998 -48.6875 33.1875 C-56.05504158 39.48765923 -59.89794003 47.087747 -63.0625 56.125 C-63.475 57.1975 -63.8875 58.27 -64.3125 59.375 C-66.56355782 70.63028911 -65.63312198 81.90081786 -59.4140625 91.73046875 C-56.35330915 95.82706657 -53.14872254 99.02937686 -49.0625 102.125 C-49.0625 102.785 -49.0625 103.445 -49.0625 104.125 C-47.9645813 104.53383423 -47.9645813 104.53383423 -46.84448242 104.95092773 C-44.19269988 106.07005211 -41.96758224 107.35788098 -39.55078125 108.91015625 C-33.705315 112.47188277 -27.59805632 115.03421061 -21.25 117.5625 C-20.06220947 118.04058105 -18.87441895 118.51866211 -17.65063477 119.01123047 C-7.2498352 123.14807882 3.28638214 126.70081798 13.9375 130.125 C27.43453729 134.46714614 40.57326936 139.11735958 53.375 145.25 C54.3743457 145.72848389 55.37369141 146.20696777 56.40332031 146.69995117 C63.14515361 150.02497803 69.93836639 153.56504324 75.9375 158.125 C75.9375 158.785 75.9375 159.445 75.9375 160.125 C76.47890625 160.3415625 77.0203125 160.558125 77.578125 160.78125 C80.75395344 162.58999997 83.14478081 165.04223799 85.6875 167.625 C86.19410156 168.12386719 86.70070313 168.62273437 87.22265625 169.13671875 C90.9375 172.87158861 90.9375 172.87158861 90.9375 175.125 C91.5975 175.125 92.2575 175.125 92.9375 175.125 C100.44853002 185.45503121 104.46947235 197.4356328 106.75 209.875 C106.87407227 210.54748779 106.99814453 211.21997559 107.12597656 211.9128418 C108.5913728 220.80572205 108.08349463 229.20697296 106.25 238 C106.07065918 238.87132568 105.89131836 239.74265137 105.70654297 240.64038086 C104.21244864 247.53408346 102.10205009 253.80523477 98.9375 260.125 C98.53144531 261.00800781 98.12539063 261.89101563 97.70703125 262.80078125 C92.44718881 273.45928894 83.68271405 284.18748917 73.9375 291.125 C73.2775 291.125 72.6175 291.125 71.9375 291.125 C71.9375 291.785 71.9375 292.445 71.9375 293.125 C69.96745132 294.60869291 68.02036875 295.94011191 65.9375 297.25 C65.30666504 297.64743408 64.67583008 298.04486816 64.02587891 298.4543457 C50.58864171 306.76799639 37.18484963 312.0007169 21.9375 316.125 C21.2775 315.465 20.6175 314.805 19.9375 314.125 C20.9275 313.795 21.9175 313.465 22.9375 313.125 C22.9375 312.465 22.9375 311.805 22.9375 311.125 C24.58203125 309.72265625 24.58203125 309.72265625 26.75 308.1875 C28.85617071 306.68747678 30.77453041 305.29341488 32.57421875 303.43359375 C33.9375 302.125 33.9375 302.125 35.9375 302.125 C36.19273437 301.55394531 36.44796875 300.98289062 36.7109375 300.39453125 C38.07205763 297.87602552 39.68768026 295.97489169 41.5625 293.8125 C54.24740007 278.10078407 58.5180399 261.13624241 56.9375 241.125 C55.39689717 230.83198691 51.58150061 222.83115918 45.109375 214.7890625 C43.9375 213.125 43.9375 213.125 43.9375 211.125 C43.2775 211.125 42.6175 211.125 41.9375 211.125 C41.35484375 210.38894531 40.7721875 209.65289062 40.171875 208.89453125 C24.20144602 189.09901701 -10.29576685 180.95640206 -33.375 173.37109375 C-39.38978146 171.33855637 -45.32797214 169.11608122 -51.24902344 166.82617188 C-52.85362909 166.20575892 -54.46172341 165.59438541 -56.0703125 164.984375 C-70.66186102 159.21278756 -84.53502923 151.56652489 -97.0625 142.125 C-98.00351563 141.42117187 -98.94453125 140.71734375 -99.9140625 139.9921875 C-100.62304688 139.37601563 -101.33203125 138.75984375 -102.0625 138.125 C-102.0625 137.465 -102.0625 136.805 -102.0625 136.125 C-102.7225 136.125 -103.3825 136.125 -104.0625 136.125 C-105.76387025 134.20380669 -107.32863194 132.29097947 -108.875 130.25 C-109.32496338 129.65791748 -109.77492676 129.06583496 -110.23852539 128.45581055 C-122.7015341 111.70222083 -125.20604936 92.02625121 -122.76220703 71.6171875 C-121.2334927 62.67469552 -117.98705722 54.72721245 -113.0625 47.125 C-112.44503906 46.16980469 -111.82757813 45.21460938 -111.19140625 44.23046875 C-107.8007092 39.1902434 -107.8007092 39.1902434 -106.0625 37.125 C-105.4025 37.125 -104.7425 37.125 -104.0625 37.125 C-103.82015625 36.55136719 -103.5778125 35.97773438 -103.328125 35.38671875 C-93.73470983 18.24293053 -66.88346273 8.81723268 -49.35620117 3.75146484 C-42.49435611 1.87733026 -35.70041498 0.69962394 -28.625 0 C-27.36743896 -0.1252002 -27.36743896 -0.1252002 -26.08447266 -0.25292969 C-17.19871845 -1.09985043 -8.86883164 -0.94664224 0 0 Z " fill="#B8102B" transform="translate(234.0625,100.875)"/>
<path d="M0 0 C-1.08868496 3.76091166 -2.53342965 7.06617958 -4.375 10.5 C-11.22256965 24.11386251 -13.47471905 38.3887776 -9.25 53.125 C-7.68766982 57.62785878 -5.86406755 61.21533931 -3 65 C-3 65.66 -3 66.32 -3 67 C-2.34 67 -1.68 67 -1 67 C0.68997323 68.64302953 2.35216394 70.31471312 4 72 C12.64265902 80.64265902 25.00606159 83.20436413 36.875 83.3125 C56.9506351 83.29287572 73.16956466 75.31287398 87.546875 61.578125 C96.83162205 51.82026982 100.85603642 40.27599844 102 27 C106 27 106 27 107.5625 28.3984375 C116.79912315 41.09879433 118.05537011 53.70892524 117 69 C115.12752302 79.59190294 108.99953735 88.98208734 102 97 C101.34 97 100.68 97 100 97 C99.01 98.98 99.01 98.98 98 101 C97.34 101 96.68 101 96 101 C96 101.66 96 102.32 96 103 C79.38028375 118.17178643 55.92590547 126.80515479 33.6875 127.6875 C32.76888184 127.72512451 31.85026367 127.76274902 30.90380859 127.80151367 C11.52843204 128.47827106 -10.74590494 125.13547074 -26 112 C-26 111.34 -26 110.68 -26 110 C-26.59296875 109.72671875 -27.1859375 109.4534375 -27.796875 109.171875 C-37.47704598 104.02284788 -43.76917423 91.67023197 -46.9375 81.5625 C-51.43471007 63.77545759 -48.67379329 45.98102065 -39.859375 29.921875 C-38.8125 28.25 -38.8125 28.25 -37 26 C-36.34 26 -35.68 26 -35 26 C-34.814375 25.319375 -34.62875 24.63875 -34.4375 23.9375 C-29.59484954 14.04164905 -11.21142973 0 0 0 Z " fill="#B8112B" transform="translate(160,293)"/>
<path d="M0 0 C-1.57284468 14.6229617 -3.7476279 29.14614793 -5.9375 43.6875 C-6.63593736 48.33696813 -7.33244369 52.98672066 -8.02734375 57.63671875 C-8.19575775 58.76101288 -8.36417175 59.88530701 -8.53768921 61.04367065 C-9.78982947 69.45329577 -10.95963818 77.87225732 -12.05223083 86.30412292 C-12.16333694 87.14582535 -12.27444305 87.98752777 -12.38891602 88.85473633 C-12.48350601 89.58686844 -12.57809601 90.31900055 -12.67555237 91.07331848 C-13 93 -13 93 -14 96 C-17.46612178 94.56616585 -19.12175669 92.88338092 -21.3125 89.8671875 C-22.21355469 88.65869141 -22.21355469 88.65869141 -23.1328125 87.42578125 C-24.38133072 85.72016954 -25.62610607 84.01181192 -26.8671875 82.30078125 C-27.76824219 81.09615234 -27.76824219 81.09615234 -28.6875 79.8671875 C-29.22761719 79.12581543 -29.76773438 78.38444336 -30.32421875 77.62060547 C-32.09069057 75.53655089 -32.09069057 75.53655089 -36 76 C-36 76.66 -36 77.32 -36 78 C-36.66 78 -37.32 78 -38 78 C-38 78.66 -38 79.32 -38 80 C-38.66 80 -39.32 80 -40 80 C-40 80.66 -40 81.32 -40 82 C-40.66 82 -41.32 82 -42 82 C-42.21398437 82.56332031 -42.42796875 83.12664062 -42.6484375 83.70703125 C-50.00769166 96.19223989 -72.6896931 106.24958203 -86 110 C-110.69564395 115.59975534 -135.02379592 113.33990576 -158.125 102.875 C-159.15109375 102.41996094 -160.1771875 101.96492188 -161.234375 101.49609375 C-168.21372768 98.39313616 -168.21372768 98.39313616 -171 97 C-171 96.34 -171 95.68 -171 95 C-170.34515625 95.0721875 -169.6903125 95.144375 -169.015625 95.21875 C-155.16323604 96.62746752 -143.13896617 96.4752867 -130.2265625 90.90234375 C-128.16056254 90.06507008 -126.17301703 89.48123893 -124 89 C-124 88.34 -124 87.68 -124 87 C-122.39283752 85.84100342 -122.39283752 85.84100342 -120.14282227 84.49511719 C-114.28724674 80.71105963 -109.60305553 76.01668701 -104.71484375 71.078125 C-103.76414799 70.12690934 -102.81293066 69.17621472 -101.86122131 68.22601318 C-99.88586955 66.25057246 -97.91571908 64.27013777 -95.94946289 62.28564453 C-93.4260297 59.73932329 -90.89145017 57.20444497 -88.35320187 54.67290115 C-86.39606017 52.71909125 -84.44392023 50.76034771 -82.49337959 48.79994965 C-81.10633849 47.40718777 -79.7157789 46.01793281 -78.32518005 44.62872314 C-77.07741539 43.36666046 -77.07741539 43.36666046 -75.80444336 42.07910156 C-75.06769882 41.33774963 -74.33095428 40.59639771 -73.57188416 39.83258057 C-71.78298194 38.14938419 -71.78298194 38.14938419 -72 36 C-73.87362589 34.45339921 -73.87362589 34.45339921 -76.3125 32.875 C-77.21355469 32.25882813 -78.11460937 31.64265625 -79.04296875 31.0078125 C-80.01878906 30.34523437 -80.99460937 29.68265625 -82 29 C-84.05008828 27.59554805 -86.09204174 26.17913538 -88.125 24.75 C-89.05570312 24.10546875 -89.98640625 23.4609375 -90.9453125 22.796875 C-91.62335938 22.20390625 -92.30140625 21.6109375 -93 21 C-93 20.01 -93 19.02 -93 18 C-92.05382812 17.82984375 -91.10765625 17.6596875 -90.1328125 17.484375 C-79.69268614 15.58118517 -69.34737968 13.35087526 -59 11 C-49.52560771 8.8474633 -40.0586861 6.76826171 -30.5005188 5.01945496 C-24.4668418 3.91478104 -18.48214952 2.62826161 -12.5 1.27539062 C-11.73429688 1.10845703 -10.96859375 0.94152344 -10.1796875 0.76953125 C-9.51694824 0.62104736 -8.85420898 0.47256348 -8.17138672 0.31958008 C-5.43225013 -0.08356022 -2.76432216 -0.04854443 0 0 Z " fill="#B7112B" transform="translate(374,103)"/>
<path d="M0 0 C8.91 0.66 17.82 1.32 27 2 C26.67 2.99 26.34 3.98 26 5 C21.545 5.495 21.545 5.495 17 6 C17 6.66 17 7.32 17 8 C18.32 7.67 19.64 7.34 21 7 C21 7.66 21 8.32 21 9 C23.97 9.495 23.97 9.495 27 10 C25.30712891 11.10864258 25.30712891 11.10864258 23 12 C20.64990234 11.41674805 20.64990234 11.41674805 18.0859375 10.26171875 C17.16039062 9.85373047 16.23484375 9.44574219 15.28125 9.02539062 C14.3221875 8.58388672 13.363125 8.14238281 12.375 7.6875 C11.40820312 7.25759766 10.44140625 6.82769531 9.4453125 6.38476562 C6.27335287 4.96934509 3.10698379 3.55349189 0 2 C0 1.34 0 0.68 0 0 Z " fill="#A5142E" transform="translate(203,198)"/>
<path d="M0 0 C1.145896 0.11746582 1.145896 0.11746582 2.31494141 0.23730469 C4.19924116 0.45988999 6.07097439 0.7841013 7.9375 1.125 C8.4325 2.115 8.4325 2.115 8.9375 3.125 C7.50406 3.65690541 6.06554633 4.17515258 4.625 4.6875 C3.42423828 5.12255859 3.42423828 5.12255859 2.19921875 5.56640625 C-0.0625 6.125 -0.0625 6.125 -3.0625 5.125 C-3.0625 4.135 -3.0625 3.145 -3.0625 2.125 C-15.75853076 1.9612976 -28.38523538 2.46589443 -41.0625 3.125 C-38.16022088 1.19014726 -37.24407543 0.8276682 -33.96484375 0.4921875 C-33.16868652 0.40807617 -32.3725293 0.32396484 -31.55224609 0.23730469 C-30.71000488 0.15899414 -29.86776367 0.08068359 -29 0 C-28.13455566 -0.0834668 -27.26911133 -0.16693359 -26.37744141 -0.25292969 C-17.391282 -1.08231716 -8.96686786 -0.95710644 0 0 Z " fill="#B66F7C" transform="translate(234.0625,100.875)"/>
<path d="M0 0 C2.475 0.495 2.475 0.495 5 1 C5 1.66 5 2.32 5 3 C4.34 3 3.68 3 3 3 C3 3.66 3 4.32 3 5 C2.34 5 1.68 5 1 5 C1 5.66 1 6.32 1 7 C0.34 7 -0.32 7 -1 7 C-1.19980469 7.55429688 -1.39960938 8.10859375 -1.60546875 8.6796875 C-3.55626798 11.92555512 -6.32733672 13.89192558 -9.3125 16.125 C-9.88162109 16.56714844 -10.45074219 17.00929687 -11.03710938 17.46484375 C-14.22182093 19.88537079 -17.20038159 21.73108428 -21 23 C-21.33 22.34 -21.66 21.68 -22 21 C-20.68 21 -19.36 21 -18 21 C-18 19.35 -18 17.7 -18 16 C-16.68 16 -15.36 16 -14 16 C-14 15.34 -14 14.68 -14 14 C-12.68 13.67 -11.36 13.34 -10 13 C-10 12.01 -10 11.02 -10 10 C-6.535 9.505 -6.535 9.505 -3 9 C-2.87625 8.2575 -2.7525 7.515 -2.625 6.75 C-2.04513299 4.19858515 -1.26291261 2.2732427 0 0 Z " fill="#B13246" transform="translate(333,178)"/>
<path d="M0 0 C-12.93758788 8.62505858 -35.21943495 6.78244291 -50 5 C-50 4.67 -50 4.34 -50 4 C-49.12375977 3.9498877 -48.24751953 3.89977539 -47.34472656 3.84814453 C-44.03432555 3.65569965 -40.7243756 3.45740034 -37.41455078 3.25537109 C-35.99313671 3.16975919 -34.57158759 3.08635526 -33.14990234 3.00537109 C-25.17063171 2.54925188 -17.33721245 1.90206978 -9.46875 0.41015625 C-6.25110591 -0.1244207 -3.25192773 -0.1478149 0 0 Z " fill="#A7344E" transform="translate(220,415)"/>
<path d="M0 0 C0.33 0.99 0.66 1.98 1 3 C0.34 3.66 -0.32 4.32 -1 5 C-1.39764263 6.98821313 -1.73775349 8.98944339 -2 11 C-4.97 11 -7.94 11 -11 11 C-11 11.66 -11 12.32 -11 13 C-11.99 13 -12.98 13 -14 13 C-14 13.66 -14 14.32 -14 15 C-14.66 15 -15.32 15 -16 15 C-16.33 15.99 -16.66 16.98 -17 18 C-19.0625 18.6875 -19.0625 18.6875 -21 19 C-21 18.34 -21 17.68 -21 17 C-22.65 17 -24.3 17 -26 17 C-23.68058494 15.45372329 -21.47020248 14.13817172 -19 12.875 C-18.319375 12.52179688 -17.63875 12.16859375 -16.9375 11.8046875 C-15 11 -15 11 -12 11 C-12 10.34 -12 9.68 -12 9 C-10.13671875 7.59765625 -10.13671875 7.59765625 -7.6875 6.0625 C-4.79977238 4.24430113 -2.318436 2.51351475 0 0 Z " fill="#B03B4E" transform="translate(262,181)"/>
<path d="M0 0 C-1.31061591 4.23429756 -2.94356259 8.07407404 -5 12 C-5.33 12 -5.66 12 -6 12 C-6 10.35 -6 8.7 -6 7 C-12.35472269 7.73002117 -12.35472269 7.73002117 -17.0625 11.625 C-17.371875 12.40875 -17.68125 13.1925 -18 14 C-19.65 13.67 -21.3 13.34 -23 13 C-17.71797054 7.36502387 -7.92935961 0 0 0 Z " fill="#AE4657" transform="translate(160,293)"/>
<path d="M0 0 C2.62187494 1.04874998 3.79371361 1.64931313 5.25 4.125 C5.4975 4.74375 5.745 5.3625 6 6 C4.68 6.33 3.36 6.66 2 7 C1.67 9.31 1.34 11.62 1 14 C0.34 14 -0.32 14 -1 14 C-0.67 15.98 -0.34 17.96 0 20 C-1.32 20.33 -2.64 20.66 -4 21 C-4.33 22.65 -4.66 24.3 -5 26 C-5.99 26.33 -6.98 26.66 -8 27 C-7.71253906 26.29359375 -7.42507812 25.5871875 -7.12890625 24.859375 C-3.99559596 16.92310118 -1.69808858 9.51668063 -1 1 C-0.67 0.67 -0.34 0.34 0 0 Z " fill="#B45163" transform="translate(263,319)"/>
<path d="M0 0 C0.66 0 1.32 0 2 0 C1.71125 0.969375 1.4225 1.93875 1.125 2.9375 C-2.39769739 15.40267062 -3.14564736 27.12611582 -1 40 C-1.99 40 -2.98 40 -4 40 C-5.31386784 34.35693445 -4.94226562 29.00142109 -4.6875 23.25 C-4.65205078 22.20328125 -4.61660156 21.1565625 -4.58007812 20.078125 C-4.31775222 13.81362577 -3.55693243 8.07521388 -2 2 C-1.34 2 -0.68 2 0 2 C0 1.34 0 0.68 0 0 Z " fill="#B04858" transform="translate(151,307)"/>
<path d="M0 0 C5.35033508 6.07992622 5.38607565 13.49892128 5.375 21.1875 C5.37628906 22.11135498 5.37757813 23.03520996 5.37890625 23.98706055 C5.26610251 31.30199852 4.10200536 37.31130094 1 44 C0.67 44 0.34 44 0 44 C0.11487748 42.41590006 0.24234508 40.83271037 0.375 39.25 C0.47941406 37.92742187 0.47941406 37.92742187 0.5859375 36.578125 C1 34 1 34 2.03125 32.1875 C3.5275434 28.80877297 3.20823984 25.37413445 3.125 21.75 C3.11146484 20.63238281 3.11146484 20.63238281 3.09765625 19.4921875 C3.07418358 17.66131941 3.03831525 15.83061762 3 14 C2.34 13.67 1.68 13.34 1 13 C0.5859375 10.05859375 0.5859375 10.05859375 0.375 6.4375 C0.30023438 5.23996094 0.22546875 4.04242188 0.1484375 2.80859375 C0.09945313 1.88175781 0.05046875 0.95492188 0 0 Z " fill="#B75F6C" transform="translate(272,330)"/>
<path d="M0 0 C0.66 0.33 1.32 0.66 2 1 C0.68 3.64 -0.64 6.28 -2 9 C-2.99 8.67 -3.98 8.34 -5 8 C-5.433125 9.670625 -5.433125 9.670625 -5.875 11.375 C-7 15 -7 15 -9 17 C-9.99 17 -10.98 17 -12 17 C-12.33 17.99 -12.66 18.98 -13 20 C-13 19.34 -13 18.68 -13 18 C-13.66 17.67 -14.32 17.34 -15 17 C-14.21654285 15.82780457 -13.42297164 14.66236332 -12.625 13.5 C-12.18414062 12.8503125 -11.74328125 12.200625 -11.2890625 11.53125 C-10.65097656 10.77328125 -10.65097656 10.77328125 -10 10 C-9.34 10 -8.68 10 -8 10 C-7.79375 9.46375 -7.5875 8.9275 -7.375 8.375 C-5.42003056 4.9982346 -2.81776305 2.69525161 0 0 Z " fill="#B02C41" transform="translate(138,128)"/>
<path d="M0 0 C-2.31 0.66 -4.62 1.32 -7 2 C-7 2.33 -7 2.66 -7 3 C-9.31 3 -11.62 3 -14 3 C-14 3.66 -14 4.32 -14 5 C-17.3 5.33 -20.6 5.66 -24 6 C-24 6.99 -24 7.98 -24 9 C-23.34 9 -22.68 9 -22 9 C-22.33 9.66 -22.66 10.32 -23 11 C-26 9.1875 -26 9.1875 -29 7 C-29 6.01 -29 5.02 -29 4 C-27.94941406 3.80664062 -26.89882813 3.61328125 -25.81640625 3.4140625 C-24.39839558 3.15126776 -22.98042973 2.88823108 -21.5625 2.625 C-20.8312793 2.4899707 -20.10005859 2.35494141 -19.34667969 2.21582031 C-15.45260499 1.48881124 -11.59844224 0.69432364 -7.75 -0.25 C-4.30343305 -0.93931339 -3.16189865 -0.97934914 0 0 Z " fill="#AF515F" transform="translate(310,117)"/>
<path d="M0 0 C2 1.375 2 1.375 4 3 C4 3.66 4 4.32 4 5 C4.66 5 5.32 5 6 5 C7.69140625 7.44921875 7.69140625 7.44921875 9.5625 10.6875 C10.18253906 11.74324219 10.80257813 12.79898437 11.44140625 13.88671875 C12.84706847 16.69452023 13.58183023 18.91241774 14 22 C13.34 22.33 12.68 22.66 12 23 C11.34 22.01 10.68 21.02 10 20 C9.01 19.34 8.02 18.68 7 18 C7.020625 17.0925 7.04125 16.185 7.0625 15.25 C6.98222011 11.07544573 5.55235284 9.22797565 3 6 C2.34 5.67 1.68 5.34 1 5 C0.375 2.4375 0.375 2.4375 0 0 Z " fill="#B4475A" transform="translate(321,271)"/>
<path d="M0 0 C-0.33 0.66 -0.66 1.32 -1 2 C-4.05919388 3.01973129 -6.12418025 3.11533602 -9.32421875 3.09765625 C-10.35224609 3.09443359 -11.38027344 3.09121094 -12.43945312 3.08789062 C-13.51130859 3.07951172 -14.58316406 3.07113281 -15.6875 3.0625 C-16.77095703 3.05798828 -17.85441406 3.05347656 -18.97070312 3.04882812 C-21.64719085 3.03703743 -24.32356777 3.02058063 -27 3 C-27.33 2.34 -27.66 1.68 -28 1 C-26.69804687 0.93941406 -25.39609375 0.87882812 -24.0546875 0.81640625 C-22.32811601 0.73195438 -20.601554 0.64730874 -18.875 0.5625 C-18.0190625 0.52318359 -17.163125 0.48386719 -16.28125 0.44335938 C-12.64505546 0.26154965 -9.16244782 0.0283081 -5.5703125 -0.59765625 C-3 -1 -3 -1 0 0 Z " fill="#AC4A58" transform="translate(215,376)"/>
<path d="M0 0 C1.65 0 3.3 0 5 0 C4.31164062 1.051875 4.31164062 1.051875 3.609375 2.125 C-1.39727566 9.86637581 -5.7554526 17.02181039 -8 26 C-8.66 25.34 -9.32 24.68 -10 24 C-9.625 20.375 -9.625 20.375 -9 17 C-8.34 17 -7.68 17 -7 17 C-7 16.01 -7 15.02 -7 14 C-6.34 14 -5.68 14 -5 14 C-5 12.68 -5 11.36 -5 10 C-4.34 10 -3.68 10 -3 10 C-3 8.68 -3 7.36 -3 6 C-2.34 6 -1.68 6 -1 6 C-0.67 4.02 -0.34 2.04 0 0 Z " fill="#BA4F61" transform="translate(178,135)"/>
<path d="M0 0 C1.32 0.33 2.64 0.66 4 1 C-12.74570447 12 -12.74570447 12 -21 12 C-21 11.01 -21 10.02 -21 9 C-17.12315913 7.80712589 -14.08378077 7 -10 7 C-10 6.34 -10 5.68 -10 5 C-9.01 5 -8.02 5 -7 5 C-7 4.34 -7 3.68 -7 3 C-3.535 2.505 -3.535 2.505 0 2 C0 1.34 0 0.68 0 0 Z " fill="#B14456" transform="translate(291,400)"/>
<path d="M0 0 C11.385 0.99 11.385 0.99 23 2 C23 2.33 23 2.66 23 3 C19.37 3 15.74 3 12 3 C12 3.66 12 4.32 12 5 C12.99 5.33 13.98 5.66 15 6 C12.19966161 7.11346788 11.09856297 7.03510273 8.203125 6.00390625 C7.22859375 5.52824219 6.2540625 5.05257812 5.25 4.5625 C4.26515625 4.08941406 3.2803125 3.61632812 2.265625 3.12890625 C1.51796875 2.75636719 0.7703125 2.38382813 0 2 C0 1.34 0 0.68 0 0 Z " fill="#B04D5E" transform="translate(203,198)"/>
<path d="M0 0 C1.7290774 -0.02725341 3.45828176 -0.04650987 5.1875 -0.0625 C6.15042969 -0.07410156 7.11335937 -0.08570312 8.10546875 -0.09765625 C10.85576513 -0.00486622 13.32479591 0.37888315 16 1 C16 1.66 16 2.32 16 3 C16.66 3.33 17.32 3.66 18 4 C10.375 6 10.375 6 7 6 C6.67 5.01 6.34 4.02 6 3 C2.99152582 1.77479736 2.99152582 1.77479736 0 1 C0 0.67 0 0.34 0 0 Z " fill="#A90F26" transform="translate(215,102)"/>
<path d="M0 0 C2 2 2 2 2.046875 4.546875 C1.28698025 12.74573937 0.25665728 20.86222907 -1 29 C-1.33 29 -1.66 29 -2 29 C-2.21105492 19.10386916 -2.10084738 9.7351767 0 0 Z " fill="#B64356" transform="translate(366,138)"/>
<path d="M0 0 C-0.99 0.495 -0.99 0.495 -2 1 C-2 1.99 -2 2.98 -2 4 C-2.804375 4.12375 -3.60875 4.2475 -4.4375 4.375 C-5.7059375 4.684375 -5.7059375 4.684375 -7 5 C-7.33 5.66 -7.66 6.32 -8 7 C-8.66 7 -9.32 7 -10 7 C-10 7.66 -10 8.32 -10 9 C-11.65 9.33 -13.3 9.66 -15 10 C-15 9.34 -15 8.68 -15 8 C-14.01 8 -13.02 8 -12 8 C-12 7.01 -12 6.02 -12 5 C-11.34 5 -10.68 5 -10 5 C-10.33 3.68 -10.66 2.36 -11 1 C-6.87831311 -0.62950412 -4.29299643 -1.26264601 0 0 Z " fill="#AF0B28" transform="translate(198,121)"/>
<path d="M0 0 C0 0.66 0 1.32 0 2 C-3.3 2.66 -6.6 3.32 -10 4 C-10 4.66 -10 5.32 -10 6 C-14.96284034 8.37113483 -19.45949887 10.43174347 -25 11 C-22.46491767 8.08160626 -19.63451212 6.63282294 -16.1875 4.9375 C-15.17042969 4.43089844 -14.15335938 3.92429687 -13.10546875 3.40234375 C-8.56395772 1.35152305 -5.01597619 0 0 0 Z " fill="#B25562" transform="translate(178,108)"/>
<path d="M0 0 C2.64680904 0.11339204 5.29177518 0.24012873 7.9375 0.375 C9.06961914 0.42140625 9.06961914 0.42140625 10.22460938 0.46875 C12.15507395 0.5726315 14.07942081 0.77895614 16 1 C16.33 1.66 16.66 2.32 17 3 C15.56656 3.53190541 14.12804633 4.05015258 12.6875 4.5625 C11.88699219 4.85253906 11.08648437 5.14257812 10.26171875 5.44140625 C8 6 8 6 5 5 C5 4.01 5 3.02 5 2 C3.35 2 1.7 2 0 2 C0 1.34 0 0.68 0 0 Z " fill="#B04656" transform="translate(226,101)"/>
<path d="M0 0 C0.99 0.33 1.98 0.66 3 1 C1.68 3.31 0.36 5.62 -1 8 C-1.99 8 -2.98 8 -4 8 C-4.33 8.99 -4.66 9.98 -5 11 C-5.66 11 -6.32 11 -7 11 C-7.66 12.32 -8.32 13.64 -9 15 C-9.66 14.01 -10.32 13.02 -11 12 C-10.45730469 11.46890625 -9.91460937 10.9378125 -9.35546875 10.390625 C-8.64003906 9.68421875 -7.92460937 8.9778125 -7.1875 8.25 C-6.47980469 7.55390625 -5.77210938 6.8578125 -5.04296875 6.140625 C-3.17724121 4.18571355 -1.56830358 2.19661447 0 0 Z " fill="#B44358" transform="translate(253,348)"/>
<path d="M0 0 C4.86548808 0.65934184 9.25907636 1.96571246 13.875 3.5625 C14.90753906 3.91344727 14.90753906 3.91344727 15.9609375 4.27148438 C17.64203645 4.84352499 19.32122163 5.42118456 21 6 C17.84493858 6.93619813 15.03413498 7.1057123 11.75 7.0625 C10.85796875 7.05347656 9.9659375 7.04445312 9.046875 7.03515625 C8.37140625 7.02355469 7.6959375 7.01195312 7 7 C7 6.01 7 5.02 7 4 C5.824375 3.7834375 5.824375 3.7834375 4.625 3.5625 C2 3 2 3 0 2 C0 1.34 0 0.68 0 0 Z " fill="#B34A59" transform="translate(227,225)"/>
<path d="M0 0 C0.66 0.99 1.32 1.98 2 3 C-1.52538646 9.2131811 -5.17895944 14.71981272 -10 20 C-11 17 -11 17 -10.375 14.5625 C-8.71652975 11.47171453 -6.89036809 9.95099846 -4 8 C-3.34 8 -2.68 8 -2 8 C-1.855625 7.236875 -1.71125 6.47375 -1.5625 5.6875 C-1 3 -1 3 0 0 Z " fill="#B24558" transform="translate(330,360)"/>
<path d="M0 0 C0.33 0 0.66 0 1 0 C1 1.98 1 3.96 1 6 C1.99 6.33 2.98 6.66 4 7 C2.98379995 10.04860014 2.22608429 10.86666922 0 13 C-0.33 13.66 -0.66 14.32 -1 15 C-1.66 15 -2.32 15 -3 15 C-3.144375 15.94875 -3.28875 16.8975 -3.4375 17.875 C-4 21 -4 21 -5 23 C-5.66 23 -6.32 23 -7 23 C-5.55211932 18.56394004 -4.08082633 14.15689514 -2.375 9.8125 C-1.13569195 6.57472661 -0.43152087 3.45216693 0 0 Z " fill="#B85362" transform="translate(291,361)"/>
<path d="M0 0 C4.84380135 0.44034558 6.76409803 1.42934955 10 5 C10.99 5.33 11.98 5.66 13 6 C14.75 8.875 14.75 8.875 16 12 C15.67 12.99 15.34 13.98 15 15 C14.67 14.01 14.34 13.02 14 12 C13.34 12 12.68 12 12 12 C11.46375 11.29875 10.9275 10.5975 10.375 9.875 C7.75103954 6.69862682 4.95163302 4.60079126 1.609375 2.234375 C1.07828125 1.82703125 0.5471875 1.4196875 0 1 C0 0.67 0 0.34 0 0 Z " fill="#B44552" transform="translate(264,300)"/>
<path d="M0 0 C1.65 0.33 3.3 0.66 5 1 C5 1.66 5 2.32 5 3 C4.34 3 3.68 3 3 3 C3 3.66 3 4.32 3 5 C2.34 5 1.68 5 1 5 C1 5.66 1 6.32 1 7 C0.34 7 -0.32 7 -1 7 C-1.226875 7.598125 -1.45375 8.19625 -1.6875 8.8125 C-3.33811133 11.56351888 -5.1972081 12.52484637 -8 14 C-8 12.35 -8 10.7 -8 9 C-6.35 9 -4.7 9 -3 9 C-2.814375 7.88625 -2.814375 7.88625 -2.625 6.75 C-2.04513299 4.19858515 -1.26291261 2.2732427 0 0 Z " fill="#B34055" transform="translate(333,178)"/>
<path d="M0 0 C1.32 0.33 2.64 0.66 4 1 C4.33 3.97 4.66 6.94 5 10 C4.34 9.34 3.68 8.68 3 8 C2.38125 8.495 1.7625 8.99 1.125 9.5 C-1 11 -1 11 -3 11 C-3 10.34 -3 9.68 -3 9 C-2.34 9 -1.68 9 -1 9 C-1.020625 7.88625 -1.04125 6.7725 -1.0625 5.625 C-1 2 -1 2 0 0 Z " fill="#AF0D24" transform="translate(265,324)"/>
<path d="M0 0 C6.48489426 1.46827795 6.48489426 1.46827795 8.9375 4 C10 6 10 6 10 8 C10.66 8 11.32 8 12 8 C12 8.99 12 9.98 12 11 C12.66 11.66 13.32 12.32 14 13 C13.01 13 12.02 13 11 13 C8.95703125 10.8125 8.95703125 10.8125 6.8125 8 C6.09707031 7.071875 5.38164062 6.14375 4.64453125 5.1875 C4.10183594 4.465625 3.55914062 3.74375 3 3 C2.01 3.33 1.02 3.66 0 4 C0 2.68 0 1.36 0 0 Z " fill="#B84F5F" transform="translate(338,175)"/>
<path d="M0 0 C1.98 0.66 3.96 1.32 6 2 C7.14507772 7.28497409 7.14507772 7.28497409 7 10 C4.5625 12.5 4.5625 12.5 2 14 C1.34 13.34 0.68 12.68 0 12 C0.66 11.38125 1.32 10.7625 2 10.125 C4.2284549 8.24362573 4.2284549 8.24362573 4 6 C2.37373596 4.61767557 0.7074998 3.28062485 -1 2 C-0.67 1.34 -0.34 0.68 0 0 Z " fill="#B23A4D" transform="translate(298,133)"/>
<path d="M0 0 C2.04262517 0.28487651 4.08407027 0.57822051 6.125 0.875 C7.26195312 1.03742188 8.39890625 1.19984375 9.5703125 1.3671875 C12.86078915 1.97431417 15.85779103 2.86345633 19 4 C19 4.33 19 4.66 19 5 C11.09890991 6.65668018 6.84377198 5.12912339 0 1 C0 0.67 0 0.34 0 0 Z " fill="#A61A31" transform="translate(241,231)"/>
<path d="M0 0 C0 1.98 0 3.96 0 6 C-0.99 6.33 -1.98 6.66 -3 7 C-3 7.66 -3 8.32 -3 9 C-3.66 9 -4.32 9 -5 9 C-4.67 7.02 -4.34 5.04 -4 3 C-5.32 2.67 -6.64 2.34 -8 2 C-4.91190305 0.23537317 -3.76687864 0 0 0 Z " fill="#BB0D35" transform="translate(154,300)"/>
<path d="M0 0 C0.66 0.33 1.32 0.66 2 1 C1.01 2.485 1.01 2.485 0 4 C0.99 4 1.98 4 3 4 C3 3.34 3 2.68 3 2 C5.375 1.375 5.375 1.375 8 1 C8.66 1.66 9.32 2.32 10 3 C5.05 4.32 0.1 5.64 -5 7 C-5 6.01 -5 5.02 -5 4 C-4.34 4 -3.68 4 -3 4 C-3 3.34 -3 2.68 -3 2 C-2.01 1.34 -1.02 0.68 0 0 Z " fill="#B27079" transform="translate(260,410)"/>
<path d="M0 0 C3.96 0.33 7.92 0.66 12 1 C12 1.66 12 2.32 12 3 C12.639375 3.103125 13.27875 3.20625 13.9375 3.3125 C14.618125 3.539375 15.29875 3.76625 16 4 C16.33 4.99 16.66 5.98 17 7 C11.27789404 5.13236819 5.62338249 3.14710968 0 1 C0 0.67 0 0.34 0 0 Z " fill="#BA4F60" transform="translate(226,282)"/>
<path d="M0 0 C0.33 0 0.66 0 1 0 C1.71033431 5.52967941 2.30267176 10.49983036 1 16 C-0.65 15.67 -2.3 15.34 -4 15 C-3 12 -3 12 -2 10.3125 C-0.53761635 6.9307378 -0.36611044 3.6611044 0 0 Z " fill="#A60C28" transform="translate(359,179)"/>
<path d="M0 0 C0 3.69942045 -0.85819127 4.40155392 -3.25 7.125 C-3.85328125 7.82882812 -4.4565625 8.53265625 -5.078125 9.2578125 C-7.10469267 11.09490433 -8.32969429 11.6100881 -11 12 C-8.01665146 6.98797445 -4.56048012 3.61251516 0 0 Z " fill="#BB5E6E" transform="translate(136,306)"/>
<path d="M0 0 C2 3 2 3 2 6 C3.32 6 4.64 6 6 6 C6.33 4.35 6.66 2.7 7 1 C7.33 1 7.66 1 8 1 C8.125 7.625 8.125 7.625 7 11 C2.71095765 9.4114658 0.67654474 6.56872632 -2 3 C-2 2.34 -2 1.68 -2 1 C-1.34 0.67 -0.68 0.34 0 0 Z " fill="#B7636F" transform="translate(353,188)"/>
<path d="M0 0 C1.0828125 1.11375 1.0828125 1.11375 2.1875 2.25 C4.90711047 5.01267269 4.90711047 5.01267269 7.8125 7.1875 C8.534375 7.785625 9.25625 8.38375 10 9 C10 9.66 10 10.32 10 11 C10.99 11.33 11.98 11.66 13 12 C12.01 12.495 12.01 12.495 11 13 C8.375 11.6875 8.375 11.6875 6 10 C6 9.34 6 8.68 6 8 C4.35 7.67 2.7 7.34 1 7 C0.67 4.69 0.34 2.38 0 0 Z " fill="#AD394A" transform="translate(175,194)"/>
<path d="M0 0 C0.33 0 0.66 0 1 0 C0.49656013 7.02673515 -0.04187968 14.01940909 -1 21 C-1.33 21 -1.66 21 -2 21 C-2.05390357 18.06225537 -2.0936255 15.12549768 -2.125 12.1875 C-2.14175781 11.35412109 -2.15851563 10.52074219 -2.17578125 9.66210938 C-2.18222656 8.85966797 -2.18867188 8.05722656 -2.1953125 7.23046875 C-2.20578613 6.49207764 -2.21625977 5.75368652 -2.22705078 4.99291992 C-2 3 -2 3 0 0 Z " fill="#BB5264" transform="translate(371,113)"/>
<path d="M0 0 C0.66 0.33 1.32 0.66 2 1 C-1.285 6.59666667 -1.285 6.59666667 -4.4375 8.375 C-7.06354247 9.01549816 -9.3077976 9.15384014 -12 9 C-8.46884205 6.09198757 -4.81808688 3.51646635 -1 1 C-0.67 0.67 -0.34 0.34 0 0 Z " fill="#B2505E" transform="translate(240,361)"/>
<path d="M0 0 C0.33 0 0.66 0 1 0 C1.83854735 6.90188971 2.01593448 13.11422188 1 20 C-1.93878456 14.55602205 -2.5497751 9.4491004 -1.0625 3.5 C-0.711875 2.345 -0.36125 1.19 0 0 Z " fill="#A40E2A" transform="translate(363,150)"/>
<path d="M0 0 C1.65 0.33 3.3 0.66 5 1 C2.83676753 3.31242092 0.62352196 5.0156396 -2.0625 6.6875 C-3.10083984 7.34298828 -3.10083984 7.34298828 -4.16015625 8.01171875 C-6 9 -6 9 -8 9 C-8 7.68 -8 6.36 -8 5 C-6.02 4.67 -4.04 4.34 -2 4 C-2 3.34 -2 2.68 -2 2 C-1.34 2 -0.68 2 0 2 C0 1.34 0 0.68 0 0 Z " fill="#B94C60" transform="translate(204,115)"/>
<path d="M0 0 C0.66 0 1.32 0 2 0 C1.66141506 3.16012613 1.05398412 3.95432113 -1.4375 6.0625 C-2.283125 6.701875 -3.12875 7.34125 -4 8 C-4.99 9.485 -4.99 9.485 -6 11 C-6.99 10.34 -7.98 9.68 -9 9 C-7.625 7.5 -7.625 7.5 -6 6 C-5.34 6 -4.68 6 -4 6 C-3.71125 5.38125 -3.4225 4.7625 -3.125 4.125 C-2 2 -2 2 0 0 Z " fill="#B14056" transform="translate(274,397)"/>
<path d="M0 0 C0.99 0 1.98 0 3 0 C3 1.65 3 3.3 3 5 C2.34 5 1.68 5 1 5 C0.34 6.32 -0.32 7.64 -1 9 C-1.66 8.67 -2.32 8.34 -3 8 C-2.45276317 4.62537285 -1.9451 2.91765 0 0 Z " fill="#A83045" transform="translate(283,384)"/>
<path d="M0 0 C4.75 0.75 4.75 0.75 7 3 C6.34 3 5.68 3 5 3 C5 3.66 5 4.32 5 5 C5.66 5.33 6.32 5.66 7 6 C7 6.66 7 7.32 7 8 C3.25 9.125 3.25 9.125 1 8 C1.33 7.01 1.66 6.02 2 5 C2.66 5 3.32 5 4 5 C4 4.34 4 3.68 4 3 C2.68 2.67 1.36 2.34 0 2 C0 1.34 0 0.68 0 0 Z " fill="#C1364C" transform="translate(200,214)"/>
<path d="M0 0 C-0.33 3.3 -0.66 6.6 -1 10 C-1.33 10 -1.66 10 -2 10 C-2 7.36 -2 4.72 -2 2 C-8.435 2.495 -8.435 2.495 -15 3 C-10.26004945 -0.15996703 -5.58842581 -0.13305776 0 0 Z " fill="#BB6E7C" transform="translate(374,103)"/>
<path d="M0 0 C0.66 0 1.32 0 2 0 C0.68786941 3.93639176 -0.82801522 4.28653597 -4.4375 6.1875 C-5.42621094 6.71730469 -6.41492188 7.24710937 -7.43359375 7.79296875 C-10 9 -10 9 -12 9 C-12 8.34 -12 7.68 -12 7 C-11.34 7 -10.68 7 -10 7 C-10 6.34 -10 5.68 -10 5 C-6.535 4.505 -6.535 4.505 -3 4 C-3 3.34 -3 2.68 -3 2 C-2.01 2 -1.02 2 0 2 C0 1.34 0 0.68 0 0 Z " fill="#BB5664" transform="translate(243,402)"/>
<path d="M0 0 C2.85793316 2.85793316 2.40799941 5.14665584 2.625 9.125 C2.69976562 10.40632812 2.77453125 11.68765625 2.8515625 13.0078125 C2.92503906 14.48894531 2.92503906 14.48894531 3 16 C1.04315542 13.06473313 0.48235576 11.38453435 -0.1875 8 C-0.36667969 7.13375 -0.54585938 6.2675 -0.73046875 5.375 C-1 3 -1 3 0 0 Z " fill="#B5475C" transform="translate(113,198)"/>
<path d="M0 0 C0.66 0.33 1.32 0.66 2 1 C0.68 3.64 -0.64 6.28 -2 9 C-2.99 8.67 -3.98 8.34 -5 8 C-5.33 8.66 -5.66 9.32 -6 10 C-6.66 10 -7.32 10 -8 10 C-6.34908222 5.70761377 -3.26245434 3.1206085 0 0 Z " fill="#B84E5F" transform="translate(138,128)"/>
<path d="M0 0 C3.375 4.5 3.375 4.5 3.6875 8.75 C3.75324219 9.54921875 3.81898438 10.3484375 3.88671875 11.171875 C3.92410156 11.77515625 3.96148437 12.3784375 4 13 C3.01 13 2.02 13 1 13 C0.67 8.71 0.34 4.42 0 0 Z " fill="#AC3F53" transform="translate(272,330)"/>
<path d="M0 0 C3.45303547 1.15101182 4.72158051 2.18994929 7 5 C7.75 8.25 7.75 8.25 8 11 C2.19794344 5.35475578 2.19794344 5.35475578 0 2 C0 1.34 0 0.68 0 0 Z " fill="#B75166" transform="translate(120,222)"/>
<path d="M0 0 C1.65 0 3.3 0 5 0 C3.85845641 1.83600745 2.71165684 3.66874805 1.5625 5.5 C0.92441406 6.5209375 0.28632813 7.541875 -0.37109375 8.59375 C-0.90863281 9.3878125 -1.44617188 10.181875 -2 11 C-2.33 11 -2.66 11 -3 11 C-3 9.35 -3 7.7 -3 6 C-2.34 6 -1.68 6 -1 6 C-0.67 4.02 -0.34 2.04 0 0 Z " fill="#B33C52" transform="translate(178,135)"/>
<path d="M0 0 C0 0.66 0 1.32 0 2 C-3.46222615 3.06723961 -6.64039266 3.10173486 -10.25 3.0625 C-11.32765625 3.05347656 -12.4053125 3.04445313 -13.515625 3.03515625 C-14.33546875 3.02355469 -15.1553125 3.01195313 -16 3 C-16 2.67 -16 2.34 -16 2 C-10.54538831 0.61470179 -5.63281599 -0.2396943 0 0 Z " fill="#B34D5D" transform="translate(340,110)"/>
<path d="M0 0 C2.97 0.495 2.97 0.495 6 1 C6.66 2.98 7.32 4.96 8 7 C8.66 7 9.32 7 10 7 C10.33 7.99 10.66 8.98 11 10 C10.34 10 9.68 10 9 10 C9 9.34 9 8.68 9 8 C8.443125 7.79375 7.88625 7.5875 7.3125 7.375 C4.07498698 5.44999226 2.31768859 2.96149098 0 0 Z " fill="#B14855" transform="translate(125,395)"/>
<path d="M0 0 C0 0.66 0 1.32 0 2 C-2.83269666 3.41634833 -5.47466438 3.3463005 -8.625 3.5625 C-9.81351563 3.64628906 -11.00203125 3.73007813 -12.2265625 3.81640625 C-13.14179688 3.87699219 -14.05703125 3.93757813 -15 4 C-10.98917213 -0.01082787 -5.44022738 -0.26537695 0 0 Z " fill="#B34F5C" transform="translate(193,104)"/>
<path d="M0 0 C-2.7596861 1.83979073 -4.29741882 2.48323221 -7.4375 3.1875 C-8.19933594 3.36667969 -8.96117187 3.54585938 -9.74609375 3.73046875 C-12.12958496 4.0154963 -13.73104204 3.72875415 -16 3 C-10.47239641 0.89424625 -5.93002267 -0.37851209 0 0 Z " fill="#B24A60" transform="translate(220,415)"/>
<path d="M0 0 C0 1.32 0 2.64 0 4 C-8.03571429 5.20535714 -8.03571429 5.20535714 -12 4 C-10.3767313 3.3291288 -8.75132422 2.66342971 -7.125 2 C-6.22007812 1.62875 -5.31515625 1.2575 -4.3828125 0.875 C-2 0 -2 0 0 0 Z " fill="#B94959" transform="translate(228,370)"/>
<path d="M0 0 C-0.99 0.495 -0.99 0.495 -2 1 C-2.33 1.99 -2.66 2.98 -3 4 C-5.0625 4.6875 -5.0625 4.6875 -7 5 C-7 4.34 -7 3.68 -7 3 C-8.65 3 -10.3 3 -12 3 C-7.78372195 0.18914797 -4.97048208 -0.11045516 0 0 Z " fill="#B2384B" transform="translate(248,195)"/>
<path d="M0 0 C2 3 2 3 3 6 C2.01 6.66 1.02 7.32 0 8 C-0.33 7.34 -0.66 6.68 -1 6 C-2.65 6.33 -4.3 6.66 -6 7 C-4.02 4.69 -2.04 2.38 0 0 Z " fill="#B94251" transform="translate(275,168)"/>
<path d="M0 0 C2.64 0.33 5.28 0.66 8 1 C8 1.66 8 2.32 8 3 C9.32 3.33 10.64 3.66 12 4 C12 4.66 12 5.32 12 6 C7.53866273 4.86279638 3.79558613 3.64540851 0 1 C0 0.67 0 0.34 0 0 Z " fill="#B4505E" transform="translate(142,409)"/>
<path d="M0 0 C8.12628256 -0.46882399 8.12628256 -0.46882399 11.5625 1.375 C13 3 13 3 13 5 C11.20620902 4.55005243 9.41501072 4.08975857 7.625 3.625 C6.62726563 3.36976563 5.62953125 3.11453125 4.6015625 2.8515625 C2 2 2 2 0 0 Z " fill="#B44758" transform="translate(206,275)"/>
<path d="M0 0 C0.99 0.33 1.98 0.66 3 1 C1.625 2.5 1.625 2.5 0 4 C-0.66 4 -1.32 4 -2 4 C-2 4.66 -2 5.32 -2 6 C-3.96147874 7.38938077 -5.96166576 8.7260411 -8 10 C-7.67 8.35 -7.34 6.7 -7 5 C-5.68 5 -4.36 5 -3 5 C-3 4.34 -3 3.68 -3 3 C-2.34 3 -1.68 3 -1 3 C-0.67 2.01 -0.34 1.02 0 0 Z " fill="#B5495D" transform="translate(191,125)"/>
<path d="M0 0 C1.65 0.33 3.3 0.66 5 1 C4.01 1.495 4.01 1.495 3 2 C3 2.66 3 3.32 3 4 C1.46875 5.2890625 1.46875 5.2890625 -0.5 6.625 C-1.1496875 7.07101562 -1.799375 7.51703125 -2.46875 7.9765625 C-2.9740625 8.31429688 -3.479375 8.65203125 -4 9 C-4 7.35 -4 5.7 -4 4 C-2.68 3.34 -1.36 2.68 0 2 C0 1.34 0 0.68 0 0 Z " fill="#BB4F61" transform="translate(253,392)"/>
<path d="M0 0 C0.66 0.99 1.32 1.98 2 3 C1.34 3 0.68 3 0 3 C0 6.3 0 9.6 0 13 C-0.99 12.67 -1.98 12.34 -3 12 C-2.49202991 7.6822542 -1.80317221 3.96697886 0 0 Z " fill="#B8485C" transform="translate(116,332)"/>
<path d="M0 0 C1.98 0.495 1.98 0.495 4 1 C4.66 3.31 5.32 5.62 6 8 C5.01 8.495 5.01 8.495 4 9 C3.34 8.01 2.68 7.02 2 6 C1.01 5.34 0.02 4.68 -1 4 C-0.67 2.68 -0.34 1.36 0 0 Z " fill="#B33047" transform="translate(329,285)"/>
<path d="M0 0 C2.64 0 5.28 0 8 0 C8 0.66 8 1.32 8 2 C10.97 2.495 10.97 2.495 14 3 C12.328125 4.1171875 12.328125 4.1171875 10 5 C7.421875 4.3203125 7.421875 4.3203125 4.75 3.125 C3.85796875 2.73570312 2.9659375 2.34640625 2.046875 1.9453125 C1.37140625 1.63335937 0.6959375 1.32140625 0 1 C0 0.67 0 0.34 0 0 Z " fill="#B14254" transform="translate(216,205)"/>
<path d="M0 0 C0.66 0.33 1.32 0.66 2 1 C-0.21928194 3.90802461 -1.92969143 5.95312762 -5 8 C-6.32 7.67 -7.64 7.34 -9 7 C-6.03 4.69 -3.06 2.38 0 0 Z " fill="#B04A5C" transform="translate(149,120)"/>
<path d="M0 0 C0.33 0.99 0.66 1.98 1 3 C0.01 3.33 -0.98 3.66 -2 4 C-2 5.32 -2 6.64 -2 8 C-3.98 8.33 -5.96 8.66 -8 9 C-7.04270084 7.87411986 -6.08412105 6.7493285 -5.125 5.625 C-4.59132813 4.99851563 -4.05765625 4.37203125 -3.5078125 3.7265625 C-2.38567993 2.44163349 -1.20628025 1.20628025 0 0 Z " fill="#B5495B" transform="translate(297,146)"/>
<path d="M0 0 C2.31 0 4.62 0 7 0 C7.33 0.66 7.66 1.32 8 2 C5.03 2.66 2.06 3.32 -1 4 C-0.67 2.68 -0.34 1.36 0 0 Z " fill="#A65D67" transform="translate(235,102)"/>
<path d="M0 0 C0.99 1.485 0.99 1.485 2 3 C2.70125 4.010625 3.4025 5.02125 4.125 6.0625 C6 9 6 9 6 11 C6.66 11 7.32 11 8 11 C7.67 11.66 7.34 12.32 7 13 C6.34 12.67 5.68 12.34 5 12 C5 11.34 5 10.68 5 10 C4.34 10 3.68 10 3 10 C3 9.34 3 8.68 3 8 C2.34 8 1.68 8 1 8 C0.67 5.36 0.34 2.72 0 0 Z " fill="#B55A67" transform="translate(151,349)"/>
<path d="M0 0 C0.99 0.33 1.98 0.66 3 1 C1.68 3.31 0.36 5.62 -1 8 C-1.66 8 -2.32 8 -3 8 C-2.25 2.25 -2.25 2.25 0 0 Z " fill="#A93448" transform="translate(253,348)"/>
<path d="M0 0 C0.66 0.33 1.32 0.66 2 1 C1.54625 1.598125 1.0925 2.19625 0.625 2.8125 C-0.63295913 4.50590652 -1.82984724 6.24477086 -3 8 C-4.65 7.67 -6.3 7.34 -8 7 C-5.4837822 4.39391727 -2.94865641 2.10618315 0 0 Z " fill="#B74D5E" transform="translate(145,299)"/>
<path d="M0 0 C4.05281712 1.22527029 7.44360764 2.69880494 11 5 C10.01 5.66 9.02 6.32 8 7 C7.67 6.01 7.34 5.02 7 4 C5.02 4 3.04 4 1 4 C0.67 2.68 0.34 1.36 0 0 Z " fill="#B85064" transform="translate(291,249)"/>
<path d="M0 0 C1.60597325 0.45196245 3.20972508 0.91182327 4.8125 1.375 C6.15248047 1.75785156 6.15248047 1.75785156 7.51953125 2.1484375 C10 3 10 3 13 5 C10.69 5 8.38 5 6 5 C6 4.34 6 3.68 6 3 C4.35 3 2.7 3 1 3 C0.67 2.01 0.34 1.02 0 0 Z " fill="#C36B7B" transform="translate(261,236)"/>
<path d="M0 0 C0.66 0 1.32 0 2 0 C2.33 2.64 2.66 5.28 3 8 C2.01 8 1.02 8 0 8 C-0.79953138 4.71303767 -1.09658936 3.28976808 0 0 Z " fill="#AE3B4F" transform="translate(147,339)"/>
<path d="M0 0 C2.475 0.495 2.475 0.495 5 1 C5 1.99 5 2.98 5 4 C4.01 4.33 3.02 4.66 2 5 C1.34 5.99 0.68 6.98 0 8 C0 5.36 0 2.72 0 0 Z " fill="#AC3F55" transform="translate(263,321)"/>
<path d="M0 0 C0 0.99 0 1.98 0 3 C-0.99 3.495 -0.99 3.495 -2 4 C-2 4.99 -2 5.98 -2 7 C-3.65 7.33 -5.3 7.66 -7 8 C-7 7.34 -7 6.68 -7 6 C-6.34 6 -5.68 6 -5 6 C-4.87625 5.195625 -4.7525 4.39125 -4.625 3.5625 C-4.41875 2.716875 -4.2125 1.87125 -4 1 C-2 0 -2 0 0 0 Z " fill="#A30F28" transform="translate(129,317)"/>
<path d="M0 0 C4 0 4 0 7 2 C6.01 2.33 5.02 2.66 4 3 C3.67 3.66 3.34 4.32 3 5 C2.01 5.33 1.02 5.66 0 6 C0 5.34 0 4.68 0 4 C-0.66 3.67 -1.32 3.34 -2 3 C-1.01 3 -0.02 3 1 3 C0.67 2.01 0.34 1.02 0 0 Z " fill="#AB0D25" transform="translate(297,129)"/>
<path d="M0 0 C-3.75 3 -3.75 3 -6 3 C-6 3.66 -6 4.32 -6 5 C-6.66 5 -7.32 5 -8 5 C-7.67 3.35 -7.34 1.7 -7 0 C-3.86650268 -1.04449911 -3.01031744 -0.93423645 0 0 Z " fill="#B3495A" transform="translate(312,389)"/>
<path d="M0 0 C-2.51699845 2.51699845 -4.57554146 3.10964078 -8 4 C-10.375 3.625 -10.375 3.625 -12 3 C-7.89542386 0.01485372 -5.02254631 -0.2954439 0 0 Z " fill="#BD5B6A" transform="translate(296,209)"/>
<path d="M0 0 C0.33 0.99 0.66 1.98 1 3 C-0.65 4.65 -2.3 6.3 -4 8 C-4.99 7.67 -5.98 7.34 -7 7 C-4.69 4.69 -2.38 2.38 0 0 Z " fill="#B65061" transform="translate(283,160)"/>
<path d="M0 0 C3.36591866 1.44253657 5.51047079 3.33264727 8 6 C6.35 6 4.7 6 3 6 C3 5.01 3 4.02 3 3 C2.01 3.33 1.02 3.66 0 4 C0 2.68 0 1.36 0 0 Z " fill="#BC5D6C" transform="translate(162,365)"/>
<path d="M0 0 C2.9719385 1.12451727 5.33440687 2.22293791 8 4 C8 4.66 8 5.32 8 6 C5.21788056 5.62403791 3.4120716 5.32681541 1.1875 3.5625 C0 2 0 2 0 0 Z " fill="#BA5765" transform="translate(302,255)"/>
<path d="M0 0 C6.52307692 -0.36923077 6.52307692 -0.36923077 8.9375 1.5 C9.288125 1.995 9.63875 2.49 10 3 C8.375 3.6875 8.375 3.6875 6 4 C2.75 2.5625 2.75 2.5625 0 1 C0 0.67 0 0.34 0 0 Z " fill="#B43B4D" transform="translate(157,255)"/>
<path d="M0 0 C3.3 1.65 6.6 3.3 10 5 C6.37673261 6.2077558 5.35853631 5.54311128 2 4 C2 3.34 2 2.68 2 2 C1.34 2 0.68 2 0 2 C0 1.34 0 0.68 0 0 Z " fill="#BA5B68" transform="translate(190,208)"/>
<path d="M0 0 C0.66 0.33 1.32 0.66 2 1 C1.67 1.66 1.34 2.32 1 3 C0.34 3 -0.32 3 -1 3 C-1 3.66 -1 4.32 -1 5 C-3.31 5.33 -5.62 5.66 -8 6 C-6.6875 4.5 -6.6875 4.5 -5 3 C-4.01 3 -3.02 3 -2 3 C-2 2.34 -2 1.68 -2 1 C-1.34 0.67 -0.68 0.34 0 0 Z " fill="#B35C6C" transform="translate(252,189)"/>
<path d="M0 0 C0 0.66 0 1.32 0 2 C-3.9813783 3.3271261 -7.85045227 3.06915913 -12 3 C-8.06769671 0.37846447 -4.67664739 0 0 0 Z " fill="#AE4A59" transform="translate(352,107)"/>
<path d="M0 0 C-0.66666667 1.33333333 -1.33333333 2.66666667 -2 4 C-6.875 2.25 -6.875 2.25 -8 0 C-4.71303767 -0.79953138 -3.28976808 -1.09658936 0 0 Z " fill="#B93248" transform="translate(144,405)"/>
<path d="M0 0 C0.33 0.99 0.66 1.98 1 3 C1.99 3.33 2.98 3.66 4 4 C3.67 4.99 3.34 5.98 3 7 C0.69 5.35 -1.62 3.7 -4 2 C-3.01 2 -2.02 2 -1 2 C-0.67 1.34 -0.34 0.68 0 0 Z " fill="#BA4A5F" transform="translate(144,243)"/>
<path d="M0 0 C2.64 0 5.28 0 8 0 C8.33 0.66 8.66 1.32 9 2 C2.25 3.125 2.25 3.125 0 2 C0 1.34 0 0.68 0 0 Z " fill="#A7102A" transform="translate(253,236)"/>
<path d="M0 0 C4.455 0.99 4.455 0.99 9 2 C9 2.33 9 2.66 9 3 C7.54364629 3.22174933 6.08477044 3.42698698 4.625 3.625 C3.81289062 3.74101562 3.00078125 3.85703125 2.1640625 3.9765625 C1.44992188 3.98429688 0.73578125 3.99203125 0 4 C-0.66 3.34 -1.32 2.68 -2 2 C-1.34 2 -0.68 2 0 2 C0 1.34 0 0.68 0 0 Z " fill="#B23E50" transform="translate(251,233)"/>
<path d="M0 0 C2.64 0.33 5.28 0.66 8 1 C4.99382731 4.00617269 2.17618402 3.59585316 -2 4 C-1.34 2.68 -0.68 1.36 0 0 Z " fill="#9E1020" transform="translate(225,104)"/>
<path d="M0 0 C1.32 0 2.64 0 4 0 C4 1.98 4 3.96 4 6 C3.01 6.495 3.01 6.495 2 7 C1.34 4.69 0.68 2.38 0 0 Z " fill="#9F142E" transform="translate(150,300)"/>
<path d="M0 0 C2.31 0 4.62 0 7 0 C7.33 0.99 7.66 1.98 8 3 C8.99 3.33 9.98 3.66 11 4 C7.1936543 3.32829194 3.64793184 2.27253436 0 1 C0 0.67 0 0.34 0 0 Z " fill="#B05461" transform="translate(174,263)"/>
<path d="M0 0 C2.4375 0.8125 2.4375 0.8125 5 2 C5.33 2.99 5.66 3.98 6 5 C6.66 5.33 7.32 5.66 8 6 C7.01 6.495 7.01 6.495 6 7 C5.34 6.67 4.68 6.34 4 6 C4 5.34 4 4.68 4 4 C3.34 4 2.68 4 2 4 C1.34 2.68 0.68 1.36 0 0 Z " fill="#B55363" transform="translate(128,233)"/>
<path d="M0 0 C1.875 0.25 1.875 0.25 4 1 C5.25 3.0625 5.25 3.0625 6 5 C4.68 4.67 3.36 4.34 2 4 C2 4.66 2 5.32 2 6 C1.34 5.67 0.68 5.34 0 5 C0 3.35 0 1.7 0 0 Z " fill="#B00A26" transform="translate(177,201)"/>
<path d="M0 0 C1.67542976 0.28604898 3.34385343 0.61781233 5 1 C4.01 1.495 4.01 1.495 3 2 C3 2.99 3 3.98 3 5 C2.01 5.33 1.02 5.66 0 6 C-0.66 5.34 -1.32 4.68 -2 4 C-1.34 4 -0.68 4 0 4 C-0.33 3.01 -0.66 2.02 -1 1 C-0.67 0.67 -0.34 0.34 0 0 Z " fill="#A61532" transform="translate(193,120)"/>
<path d="M0 0 C0.66 0 1.32 0 2 0 C0.50902342 3.7952131 -1.75700849 5.61042731 -5 8 C-4.67 6.68 -4.34 5.36 -4 4 C-3.34 4 -2.68 4 -2 4 C-2 3.34 -2 2.68 -2 2 C-1.34 2 -0.68 2 0 2 C0 1.34 0 0.68 0 0 Z " fill="#C16672" transform="translate(317,380)"/>
<path d="M0 0 C0.66 0.33 1.32 0.66 2 1 C-0.97 3.475 -0.97 3.475 -4 6 C-4.66 5.67 -5.32 5.34 -6 5 C-3.375 1.125 -3.375 1.125 0 0 Z " fill="#B14759" transform="translate(131,312)"/>
<path d="M0 0 C2.97 0.495 2.97 0.495 6 1 C6.33 2.65 6.66 4.3 7 6 C5.83054208 5.19152271 4.66449539 4.37810888 3.5 3.5625 C2.8503125 3.11003906 2.200625 2.65757812 1.53125 2.19140625 C1.0259375 1.79824219 0.520625 1.40507812 0 1 C0 0.67 0 0.34 0 0 Z " fill="#B54E61" transform="translate(264,300)"/>
<path d="M0 0 C2.31 0.33 4.62 0.66 7 1 C7.33 2.32 7.66 3.64 8 5 C2.25 3.375 2.25 3.375 0 0 Z " fill="#AB394B" transform="translate(235,284)"/>
<path d="M0 0 C6.75 1.75 6.75 1.75 9 4 C6.36 3.67 3.72 3.34 1 3 C0.67 2.01 0.34 1.02 0 0 Z " fill="#A93344" transform="translate(196,270)"/>
<path d="M0 0 C2.97 0.99 5.94 1.98 9 3 C7.02 3.99 7.02 3.99 5 5 C5 4.34 5 3.68 5 3 C3.35 3 1.7 3 0 3 C0 2.01 0 1.02 0 0 Z " fill="#BA5665" transform="translate(274,241)"/>
<path d="M0 0 C2.5 1.375 2.5 1.375 5 3 C5 3.66 5 4.32 5 5 C5.99 5.33 6.98 5.66 8 6 C7.01 6.495 7.01 6.495 6 7 C1.30639731 4.82491582 1.30639731 4.82491582 0.1875 1.8125 C0.125625 1.214375 0.06375 0.61625 0 0 Z " fill="#B44A5C" transform="translate(180,200)"/>
<path d="M0 0 C0 0.66 0 1.32 0 2 C-5.41538462 3.23076923 -5.41538462 3.23076923 -8.375 2.0625 C-8.91125 1.711875 -9.4475 1.36125 -10 1 C-3.375 0 -3.375 0 0 0 Z " fill="#BD6773" transform="translate(236,198)"/>
<path d="M0 0 C3.63 0.33 7.26 0.66 11 1 C11 1.33 11 1.66 11 2 C9.54263913 2.19491452 8.08405407 2.38069358 6.625 2.5625 C5.81289062 2.66691406 5.00078125 2.77132812 4.1640625 2.87890625 C2 3 2 3 0 2 C0 1.34 0 0.68 0 0 Z " fill="#CEAAAE" transform="translate(203,198)"/>
<path d="M0 0 C0 0.99 0 1.98 0 3 C-2.64738916 4.4606285 -3.89448334 5 -7 5 C-4.53846154 1.18461538 -4.53846154 1.18461538 -1.8125 0.25 C-1.214375 0.1675 -0.61625 0.085 0 0 Z " fill="#A30B26" transform="translate(144,127)"/>
</svg>
